<svg width="15" height="155" viewBox="0 0 15 181" fill="none" xmlns="http://www.w3.org/2000/svg">
<path d="M6.58587 180.7C6.97247 181.094 7.6056 181.101 8.00001 180.714L14.4273 174.414C14.8217 174.028 14.828 173.394 14.4414 173C14.0548 172.606 13.4217 172.599 13.0273 172.986L7.31415 178.586L1.71414 172.873C1.32754 172.478 0.694411 172.472 0.300001 172.859C-0.0944088 173.245 -0.10074 173.878 0.28586 174.273L6.58587 180.7ZM7.80001 130L6.80006 129.99L6.30006 179.99L7.30001 180L8.29996 180.01L8.79996 130.01L7.80001 130Z" fill="#FB4B00"/>
<path d="M13.92 113.462C13.92 114.462 13.7267 115.175 13.34 115.602C12.94 116.028 12.3867 116.242 11.68 116.242H10.42L10.16 114.342H11.58C11.7267 114.342 11.8733 114.322 12.02 114.282C12.1667 114.228 12.2867 114.135 12.38 114.002C12.46 113.868 12.5 113.668 12.5 113.402C12.5 113.095 12.4333 112.862 12.3 112.702C12.1667 112.528 11.9267 112.442 11.58 112.442C11.0867 112.442 10.7267 112.482 10.5 112.562C10.26 112.628 10.06 112.828 9.90001 113.162C9.83334 113.268 9.76668 113.402 9.70001 113.562C9.63334 113.708 9.56001 113.862 9.48001 114.022C9.40001 114.182 9.32668 114.335 9.26001 114.482C9.18001 114.628 9.11334 114.748 9.06001 114.842C8.83334 115.242 8.61334 115.542 8.40001 115.742C8.18668 115.942 7.96668 116.075 7.74001 116.142C7.50001 116.208 7.24001 116.242 6.96001 116.242H6.58001C5.78001 116.242 5.20001 116.008 4.84001 115.542C4.46668 115.075 4.28001 114.335 4.28001 113.322C4.28001 112.308 4.44668 111.588 4.78001 111.162C5.11334 110.722 5.65334 110.502 6.40001 110.502H7.54001L7.80001 112.422H6.60001C6.26668 112.422 6.04001 112.502 5.92001 112.662C5.78668 112.808 5.72001 113.048 5.72001 113.382C5.72001 113.648 5.76668 113.855 5.86001 114.002C5.94001 114.135 6.05334 114.222 6.20001 114.262C6.33334 114.302 6.47334 114.322 6.62001 114.322C7.03334 114.322 7.32001 114.288 7.48001 114.222C7.64001 114.155 7.79334 114.015 7.94001 113.802C8.00668 113.695 8.08668 113.548 8.18001 113.362C8.27334 113.175 8.38001 112.955 8.50001 112.702C8.62001 112.448 8.76001 112.168 8.92001 111.862C9.16001 111.355 9.44668 111.002 9.78001 110.802C10.1133 110.602 10.58 110.502 11.18 110.502H11.48C12.3067 110.502 12.92 110.715 13.32 111.142C13.72 111.555 13.92 112.328 13.92 113.462ZM13.9 102.108C13.9 102.988 13.7933 103.655 13.58 104.108C13.3667 104.548 13.08 104.848 12.72 105.008C12.36 105.168 11.9667 105.248 11.54 105.248H6.64001C6.20001 105.248 5.80668 105.168 5.46001 105.008C5.10001 104.848 4.81334 104.542 4.60001 104.088C4.38668 103.622 4.28001 102.942 4.28001 102.048C4.28001 101.248 4.38668 100.615 4.60001 100.148C4.80001 99.6815 5.07334 99.3549 5.42001 99.1682C5.76668 98.9682 6.16001 98.8682 6.60001 98.8682H8.08001L8.26001 100.988H7.00001C6.72001 100.988 6.47334 101.075 6.26001 101.248C6.03334 101.408 5.92001 101.682 5.92001 102.068C5.92001 102.442 6.02668 102.715 6.24001 102.888C6.45334 103.048 6.70668 103.128 7.00001 103.128H11.14C11.42 103.128 11.66 103.048 11.86 102.888C12.06 102.728 12.16 102.475 12.16 102.128C12.16 101.715 12.06 101.422 11.86 101.248C11.6467 101.075 11.3867 100.988 11.08 100.988H9.98001L9.82001 98.8682H11.46C11.9267 98.8682 12.3467 98.9682 12.72 99.1682C13.08 99.3682 13.3667 99.7015 13.58 100.168C13.7933 100.635 13.9 101.282 13.9 102.108ZM13.8 93.491H4.40001V91.751L5.38001 91.551C5.00668 91.351 4.72668 91.0777 4.54001 90.731C4.35334 90.371 4.26001 90.0243 4.26001 89.691C4.26001 89.331 4.28001 89.0577 4.32001 88.871C4.34668 88.6843 4.39334 88.531 4.46001 88.411L6.30001 88.511C6.24668 88.6577 6.20668 88.851 6.18001 89.091C6.14001 89.3177 6.12001 89.5777 6.12001 89.871C6.12001 90.231 6.22668 90.551 6.44001 90.831C6.64001 91.111 6.95334 91.291 7.38001 91.371H13.8V93.491ZM13.9 80.4754C13.9 81.3554 13.7933 82.0221 13.58 82.4754C13.3667 82.9154 13.08 83.2154 12.72 83.3754C12.36 83.5354 11.9667 83.6154 11.54 83.6154H6.64001C6.20001 83.6154 5.80668 83.5354 5.46001 83.3754C5.10001 83.2154 4.81334 82.9087 4.60001 82.4554C4.38668 81.9887 4.28001 81.3087 4.28001 80.4154C4.28001 79.6154 4.38668 78.9821 4.60001 78.5154C4.80001 78.0487 5.07334 77.7221 5.42001 77.5354C5.76668 77.3354 6.16001 77.2354 6.60001 77.2354H11.46C11.9267 77.2354 12.3467 77.3354 12.72 77.5354C13.08 77.7354 13.3667 78.0687 13.58 78.5354C13.7933 79.0021 13.9 79.6487 13.9 80.4754ZM12.16 80.4954C12.16 80.0821 12.06 79.7887 11.86 79.6154C11.6467 79.4421 11.3867 79.3554 11.08 79.3554H7.00001C6.72001 79.3554 6.47334 79.4421 6.26001 79.6154C6.03334 79.7754 5.92001 80.0487 5.92001 80.4354C5.92001 80.8087 6.02668 81.0821 6.24001 81.2554C6.45334 81.4154 6.70668 81.4954 7.00001 81.4954H11.14C11.42 81.4954 11.66 81.4154 11.86 81.2554C12.06 81.0954 12.16 80.8421 12.16 80.4954ZM1.34001 71.7801L1.34001 69.6601H13.8V71.7801H1.34001ZM1.34001 64.0691L1.34001 61.9491H13.8V64.0691H1.34001Z" fill="#FB4B00"/>
<line x1="5.80001" y1="49" x2="5.80001" y2="-4.37114e-08" stroke="#FB4B00" stroke-width="2"/>
</svg>
